<svg width="36" height="34" viewBox="0 0 36 34" fill="none" xmlns="http://www.w3.org/2000/svg">
<g clip-path="url(#clip0_94_5742)">
<path d="M35.9098 25.993L29.2315 19.683C31.2339 17.2187 32.1687 14.1272 31.8464 11.0358C31.5241 7.9444 29.9688 5.08452 27.496 3.03631C25.0231 0.988105 21.818 -0.0950564 18.5306 0.00655319C15.2433 0.108163 12.12 1.38693 9.79426 3.58346C7.46852 5.77999 6.11453 8.7298 6.00694 11.8345C5.89935 14.9392 7.04623 17.9663 9.21492 20.3017C11.3836 22.6372 14.4117 24.1061 17.685 24.4105C20.9582 24.7149 24.2315 23.832 26.8409 21.9409L33.5248 28.2548C33.6817 28.403 33.8681 28.5206 34.0732 28.6008C34.2783 28.6811 34.4981 28.7224 34.7201 28.7224C34.9421 28.7224 35.1619 28.6811 35.367 28.6008C35.5721 28.5206 35.7584 28.403 35.9154 28.2548C36.0724 28.1065 36.1969 27.9305 36.2818 27.7368C36.3668 27.5431 36.4105 27.3355 36.4105 27.1259C36.4105 26.9162 36.3668 26.7086 36.2818 26.5149C36.1969 26.3212 36.0724 26.1452 35.9154 25.997L35.9098 25.993ZM9.40337 12.2455C9.40337 10.4593 9.9642 8.71323 11.0149 7.22805C12.0657 5.74287 13.5591 4.58531 15.3065 3.90176C17.0538 3.2182 18.9765 3.03936 20.8314 3.38783C22.6864 3.7363 24.3902 4.59644 25.7276 5.85949C27.0649 7.12253 27.9757 8.73175 28.3446 10.4836C28.7136 12.2355 28.5242 14.0514 27.8005 15.7017C27.0767 17.3519 25.8511 18.7624 24.2785 19.7548C22.706 20.7471 20.8572 21.2768 18.9659 21.2768C16.4305 21.2743 13.9998 20.322 12.207 18.6289C10.4143 16.9357 9.40598 14.64 9.40337 12.2455Z" fill="black"/>
</g>
<defs>
<clipPath id="clip0_94_5742">
<rect width="36" height="34" fill="white"/>
</clipPath>
</defs>
</svg>
